Coordinates
version=1
nRows=29
nColumns=24
inDegrees=yes

Units are S.I. units (second, meters, Newtons, ...)
Angles are in degrees.

endheader
time	pelvis_tilt	pelvis_list	pelvis_rotation	pelvis_tx	pelvis_ty	pelvis_tz	hip_flexion_r	hip_adduction_r	hip_rotation_r	knee_angle_r	ankle_angle_r	subtalar_angle_r	mtp_angle_r	hip_flexion_l	hip_adduction_l	hip_rotation_l	knee_angle_l	ankle_angle_l	subtalar_angle_l	mtp_angle_l	lumbar_extension	lumbar_bending	lumbar_rotation
      5.50000000	      1.46077447	      8.03500230	     12.36737511	      1.25292856	      0.87816882	     -0.23298579	     22.75649752	     -7.43481740	     -7.38712566	     -5.18759985	      5.78222871	     -0.19707408	      0.00000000	    -21.09837673	      9.94947328	     12.20169246	     -8.21279883	     15.89174651	      2.01867546	      0.00000000	    -22.65744928	     -7.00764802	    -15.91332273
      5.51000000	      1.50741508	      7.96562400	     12.65929776	      1.26668686	      0.87707069	     -0.23312856	     22.89693483	     -7.37627952	     -7.63532647	     -6.96571555	      5.22376647	     -0.98259510	      0.00000000	    -21.48804300	      9.58092541	     11.41647414	     -9.22746035	     15.68927744	      2.96491650	      0.00000000	    -22.52563563	     -6.80402094	    -16.37421017
      5.52000000	      1.58489874	      7.83186275	     13.02150630	      1.28066005	      0.87612894	     -0.23335268	     22.90864620	     -7.25926728	     -7.81813809	     -8.68003892	      4.41403168	     -1.85948007	      0.00000000	    -21.83687821	      9.10193485	     10.67356592	    -10.34456196	     15.36598441	      3.88347468	      0.00000000	    -22.36366517	     -6.49920969	    -16.88785078
      5.53000000	      1.67537093	      7.61701408	     13.43190799	      1.29475214	      0.87537701	     -0.23363025	     22.88590347	     -7.06901942	     -8.00685479	    -10.41265134	      3.59028902	     -2.71410759	      0.00000000	    -22.08726141	      8.51381645	      9.99106187	    -11.60433393	     14.88581237	      4.68270585	      0.00000000	    -22.16193492	     -6.09008998	    -17.44444021
      5.54000000	      1.81306068	      7.31682497	     13.85125151	      1.30889509	      0.87489420	     -0.23393217	     22.86160777	     -6.79368233	     -8.26931116	    -12.25677702	      3.03854363	     -3.40739961	      0.00000000	    -22.25620507	      7.82399565	      9.38157568	    -13.01206672	     14.19834446	      5.31209158	      0.00000000	    -21.96001788	     -5.56590768	    -17.99559796
      5.55000000	      2.01015704	      6.94871509	     14.16981382	      1.32306916	      0.87468404	     -0.23418919	     22.89378479	     -6.42825736	     -8.60839107	    -14.30439312	      2.92204504	     -3.86959660	      0.00000000	    -22.39544145	      7.11315178	      8.96098689	    -14.48330488	     13.08180441	      5.43253229	      0.00000000	    -21.76811497	     -4.96681061	    -18.39337553
      5.56000000	      2.27651926	      6.54478327	     14.40460625	      1.33720138	      0.87475945	     -0.23435729	     22.94290477	     -5.99685244	     -8.95801300	    -16.52473156	      3.56634941	     -3.92407800	      0.00000000	    -22.35458928	      6.36232028	      8.17228343	    -16.29676866	     11.82818493	      5.91283214	      0.00000000	    -21.63175267	     -4.32364052	    -18.70327502
      5.57000000	      2.60946454	      6.13261659	     14.49124321	      1.35130759	      0.87509748	     -0.23444195	     22.96073413	     -5.49541239	     -9.21751783	    -18.81231254	      4.71774787	     -3.79908067	      0.00000000	    -22.25812913	      5.67859506	      7.50214857	    -18.23587458	     10.03093043	      5.88336123	      0.00000000	    -21.54688322	     -3.67365429	    -18.83994143
      5.58000000	      2.98100097	      5.72406511	     14.46205878	      1.36534133	      0.87568174	     -0.23445963	     22.88941046	     -4.94963601	     -9.46104744	    -21.01020896	      6.26907845	     -3.44550193	      0.00000000	    -22.01648961	      5.06105777	      6.80613235	    -20.39764049	      7.71318359	      5.60276560	      0.00000000	    -21.50418236	     -3.03065094	    -18.82551905
      5.59000000	      3.36799986	      5.29376130	     14.31158057	      1.37925825	      0.87646879	     -0.23433817	     22.64788590	     -4.27767483	     -9.46359975	    -22.89168532	      7.99144411	     -3.11253077	      0.00000000	    -21.56086360	      4.48418929	      6.00787683	    -22.83977918	      4.97430249	      5.10669012	      0.00000000	    -21.48735042	     -2.38619987	    -18.66433340
      5.60000000	      3.71772160	      4.83293665	     14.13004601	      1.39296584	      0.87743557	     -0.23416256	     22.23692991	     -3.53666952	     -9.46315478	    -24.35434433	      9.64747559	     -2.80962773	      0.00000000	    -20.80928795	      3.91147136	      5.17303123	    -25.59227194	      1.86668031	      4.48526749	      0.00000000	    -21.45583756	     -1.72603478	    -18.39877180
      5.61000000	      4.00324330	      4.31649592	     13.96888355	      1.40637332	      0.87854953	     -0.23394830	     21.65130396	     -2.71451388	     -9.47176149	    -25.31434175	     11.10580962	     -2.60396158	      0.00000000	    -19.71254091	      3.29737412	      4.35604523	    -28.67737810	     -1.37304754	      3.79202996	      0.00000000	    -21.39430587	     -1.02221453	    -18.07409862
      5.62000000	      4.20593630	      3.73001939	     13.88628568	      1.41941387	      0.87976397	     -0.23373813	     20.92201696	     -1.82386631	     -9.54681083	    -25.78039743	     12.29492797	     -2.51934047	      0.00000000	    -18.25387360	      2.60491751	      3.62874407	    -32.08106312	     -4.46433632	      3.06775720	      0.00000000	    -21.28426707	     -0.25694658	    -17.73023886
      5.63000000	      4.36026210	      3.04558139	     13.91869258	      1.43205329	      0.88106530	     -0.23356051	     20.04347349	     -0.83390766	     -9.68669048	    -25.78615371	     13.23050152	     -2.56454489	      0.00000000	    -16.48592716	      1.78363087	      3.04767227	    -35.76712621	     -7.04558190	      2.35303274	      0.00000000	    -21.15694932	      0.62048101	    -17.38302152
      5.64000000	      4.44282601	      2.31701434	     14.07973931	      1.44426535	      0.88241555	     -0.23347499	     19.09596286	      0.17493854	     -9.91406603	    -25.44922121	     13.96551611	     -2.60775472	      0.00000000	    -14.46532506	      0.95050798	      2.82561337	    -39.60549017	     -9.07903426	      1.49175357	      0.00000000	    -20.99749428	      1.54530156	    -17.07525805
      5.65000000	      4.34087269	      1.61851221	     14.36268138	      1.45603341	      0.88360480	     -0.23350366	     18.27690260	      1.07876665	    -10.24221546	    -24.93703423	     14.52131661	     -2.79628000	      0.00000000	    -12.11600931	      0.23526851	      2.93344637	    -43.52788289	    -10.41658911	      0.30563910	      0.00000000	    -20.66843314	      2.39331737	    -16.82902347
      5.66000000	      4.32780236	      0.92297263	     14.66549071	      1.46749006	      0.88497479	     -0.23353040	     17.31118133	      2.01246554	    -10.59078934	    -24.25711874	     14.94998444	     -2.92668660	      0.00000000	     -9.81428980	     -0.43472935	      3.23913756	    -47.35307600	    -11.05931319	     -0.97135793	      0.00000000	    -20.47622922	      3.24826213	    -16.49248097
      5.67000000	      4.21662265	      0.33852473	     14.92651886	      1.47864320	      0.88632146	     -0.23353678	     16.42724602	      2.83755918	    -10.77322982	    -23.52449423	     15.30566842	     -3.09309510	      0.00000000	     -7.43284605	     -0.84587326	      3.73227954	    -50.98104377	    -11.18340838	     -2.47190663	      0.00000000	    -20.22575863	      3.93444288	    -16.15220890
      5.68000000	      4.15812334	     -0.12595729	     15.07658089	      1.48958838	      0.88783488	     -0.23343990	     15.47954704	      3.57177379	    -10.87789277	    -22.78392327	     15.61496361	     -3.18404862	      0.00000000	     -5.18978275	     -1.04451712	      4.26026050	    -54.29887960	    -10.92323381	     -4.14655312	      0.00000000	    -20.09609756	      4.45347113	    -15.65186254
      5.69000000	      4.15047873	     -0.46601617	     15.05300786	      1.50041220	      0.88953382	     -0.23317625	     14.45862268	      4.22848953	    -10.80819699	    -22.03437169	     15.93040880	     -3.13815437	      0.00000000	     -3.11786101	     -1.04265394	      4.71514463	    -57.24407273	    -10.41109221	     -5.86102168	      0.00000000	    -20.08027365	      4.78916284	    -14.96857733
      5.70000000	      4.04732336	     -0.61914096	     14.82724456	      1.51106824	      0.89122389	     -0.23274062	     13.54675895	      4.68711853	    -10.52932740	    -21.37512575	     16.20705681	     -3.12653534	      0.00000000	     -1.07988363	     -0.74089363	      5.05285624	    -59.80048856	     -9.78762072	     -7.69936364	      0.00000000	    -20.04132190	      4.83141369	    -14.16698995
      5.71000000	      3.99568842	     -0.67910158	     14.39797458	      1.52167253	      0.89305327	     -0.23209100	     12.55627627	      5.08955126	    -10.06085015	    -20.70604841	     16.48815659	     -2.99699008	      0.00000000	      0.78829077	     -0.34409341	      5.19551731	    -61.96207679	     -9.05089552	     -9.35046522	      0.00000000	    -20.10712620	      4.71920939	    -13.17311695
      5.72000000	      3.99964827	     -0.66966205	     13.78849076	      1.53220624	      0.89496877	     -0.23125408	     11.49749359	      5.43775873	     -9.46907765	    -20.04677085	     16.81636987	     -2.71764328	      0.00000000	      2.50600051	      0.08928016	      5.14417570	    -63.75882704	     -8.13775938	    -10.65504021	      0.00000000	    -20.28029401	      4.49411474	    -12.02562705
      5.73000000	      3.95724095	     -0.60465230	     13.05044037	      1.54268346	      0.89681069	     -0.23028733	     10.46990836	      5.70615980	     -8.78470362	    -19.37539583	     17.09114617	     -2.44411670	      0.00000000	      4.19499717	      0.56169513	      4.95755177	    -65.20406482	     -7.18362789	    -11.77137164	      0.00000000	    -20.40671809	      4.14655270	    -10.80167047
      5.74000000	      3.87668176	     -0.52310458	     12.22449932	      1.55308004	      0.89851334	     -0.22919412	      9.45808918	      5.95526580	     -7.89793466	    -18.65465996	     17.20373504	     -2.41904723	      0.00000000	      5.87919490	      1.00127348	      4.66099510	    -66.34805076	     -6.03728387	    -12.50570337	      0.00000000	    -20.48931580	      3.73861760	     -9.56401302
      5.75000000	      3.87007400	     -0.46064193	     11.35007371	      1.56339065	      0.90016830	     -0.22805045	      8.36806485	      6.20406404	     -7.05882884	    -17.92192669	     17.39512985	     -2.18244163	      0.00000000	      7.44898635	      1.34096247	      4.30034076	    -67.20864679	     -4.71395049	    -12.82694921	      0.00000000	    -20.64983321	      3.35884757	     -8.30247950
      5.76000000	      3.84433153	     -0.41735737	     10.46306314	      1.57360604	      0.90162072	     -0.22688365	      7.29398533	      6.43696818	     -6.22678162	    -17.16532481	     17.57243771	     -1.94189821	      0.00000000	      9.01230986	      1.60645085	      3.92063152	    -67.81227466	     -3.26717289	    -12.82855800	      0.00000000	    -20.76837422	      2.99414713	     -7.08567653
      5.77000000	      3.81955622	     -0.41815043	      9.59547341	      1.58369639	      0.90284457	     -0.22573771	      6.22957827	      6.68290038	     -5.42435663	    -16.40046596	     17.72328895	     -1.80264676	      0.00000000	     10.56059649	      1.77513062	      3.56280773	    -68.18686670	     -1.67171400	    -12.51881016	      0.00000000	    -20.86859229	      2.68964364	     -5.89712349
      5.78000000	      3.77562374	     -0.43143582	      8.73625078	      1.59367838	      0.90384281	     -0.22460697	      5.18552138	      6.90905754	     -4.61149887	    -15.63099978	     17.87555638	     -1.58966809	      0.00000000	     12.09527354	      1.89027997	      3.22066917	    -68.31295754	     -0.09345966	    -12.01537788	      0.00000000	    -20.92595773	      2.40272611	     -4.81666072
